<svg xmlns="http://www.w3.org/2000/svg" viewBox="0 0 200 60" fill="none">
  <!-- Background leaf shape -->
  <ellipse cx="30" cy="30" rx="25" ry="25" fill="#16a34a" opacity="0.2"/>

  <!-- Bicycle wheel 1 -->
  <circle cx="20" cy="35" r="12" stroke="#16a34a" stroke-width="2" fill="none"/>
  <circle cx="20" cy="35" r="2" fill="#16a34a"/>
  <!-- Spokes -->
  <line x1="20" y1="23" x2="20" y2="47" stroke="#16a34a" stroke-width="1"/>
  <line x1="8" y1="35" x2="32" y2="35" stroke="#16a34a" stroke-width="1"/>

  <!-- Bicycle wheel 2 -->
  <circle cx="50" cy="35" r="12" stroke="#16a34a" stroke-width="2" fill="none"/>
  <circle cx="50" cy="35" r="2" fill="#16a34a"/>
  <!-- Spokes -->
  <line x1="50" y1="23" x2="50" y2="47" stroke="#16a34a" stroke-width="1"/>
  <line x1="38" y1="35" x2="62" y2="35" stroke="#16a34a" stroke-width="1"/>

  <!-- Frame -->
  <polyline points="20,35 35,20 50,35 35,35 20,35" stroke="#16a34a" stroke-width="2" fill="none"/>
  <line x1="35" y1="20" x2="35" y2="35" stroke="#16a34a" stroke-width="2"/>

  <!-- Leaf on top -->
  <path d="M35 8 Q42 12 38 20 Q35 15 32 20 Q28 12 35 8" fill="#16a34a"/>
  <line x1="35" y1="8" x2="35" y2="18" stroke="#15803d" stroke-width="1"/>

  <!-- Text -->
  <text x="70" y="28" font-family="Arial, sans-serif" font-size="18" font-weight="bold" fill="#16a34a">Bio</text>
  <text x="70" y="46" font-family="Arial, sans-serif" font-size="18" font-weight="bold" fill="#374151">Rider</text>

  <!-- Subtitle -->
  <text x="115" y="37" font-family="Arial, sans-serif" font-size="8" fill="#6b7280">Co-Creation Map</text>
</svg>
